# xmcd
#
# Track frame offsets: 
#        182
#        20015
#        39422
#        58847
#        86697
#        105632
#        129325
#        150015
#        169980
#        190467
#        210130
#        230310
#        249085
#        268745
#        292750
#        314832
#        333272
#
# Disc length: 4677 seconds
#
# Revision: 5
# Processed by: cddbd v1.5.2PL0 Copyright (c) Steve Scherf et al.
# Submitted via: ExactAudioCopyFreeDBPlugin 1.0
#
DISCID=df124311
DTITLE=The Temptations - The Temptations:  Emperors of Soul [box set]
DYEAR=1994
DGENRE=Soul
TTITLE0=Stand on the Top, Part 1
TTITLE1=Sail Away
TTITLE2=Treat Her Like a Lady
TTITLE3=My Love is True (Truly for You)
TTITLE4=Do You Really Love Your Baby
TTITLE5=Magic
TTITLE6=Lady Soul
TTITLE7=I Wonder Who She's Seeing Now
TTITLE8=Look What You Started
TTITLE9=Soul to Soul
TTITLE10=Special
TTITLE11=My Kind of Woman
TTITLE12=Hoops of Fire
TTITLE13=Error of Our Ways
TTITLE14=Givin' U the Best
TTITLE15=Elevator Eyes
TTITLE16=Blueprint for Love
EXTD=YEAR: 1994
EXTT0=
EXTT1=
EXTT2=
EXTT3=
EXTT4=
EXTT5=
EXTT6=
EXTT7=
EXTT8=
EXTT9=
EXTT10=
EXTT11=
EXTT12=
EXTT13=
EXTT14=
EXTT15=
EXTT16=
PLAYORDER=
